<svg id="Capa_1" enable-background="new 0 0 511.262 511.262" height="512" viewBox="0 0 511.262 511.262" width="512" xmlns="http://www.w3.org/2000/svg"><g><path d="m364.221 321.092c-3.962-1.193-8.148 1.054-9.342 5.021l-6.054 20.123c-.211.701-.318 1.429-.318 2.161v85.372c0 4.142 3.357 7.5 7.5 7.5s7.5-3.358 7.5-7.5v-84.269l5.735-19.066c1.194-3.966-1.054-8.149-5.021-9.342z"/><path d="m356.007 458.231c-4.143 0-7.5 3.358-7.5 7.5v37.087c0 4.142 3.357 7.5 7.5 7.5s7.5-3.358 7.5-7.5v-37.087c0-4.142-3.357-7.5-7.5-7.5z"/><path d="m178.211 412.366-74.58-.292c-9.159-.036-16.934-6.613-18.486-15.639l-3.253-18.907h22.985c9.478 0 18.387-3.691 25.088-10.392l9.376-9.376c2.929-2.929 2.929-7.678 0-10.606-2.929-2.929-7.678-2.929-10.606 0l-9.377 9.376c-3.868 3.868-9.01 5.999-14.481 5.999h-25.566l-6.858-39.86c-.619-3.599-3.74-6.229-7.392-6.229h-26.614c.246-21.664 6.406-42.801 17.852-61.217l9.101-14.642c2.107-3.389 3.058-7.284 2.75-11.261l-3.416-44.206c-3.429-44.376 11.334-86.803 41.569-119.464 30.235-32.662 71.398-50.65 115.907-50.65 4.298 0 8.808.181 13.402.537 4.117.315 7.737-2.768 8.057-6.898s-2.768-7.737-6.898-8.057c-4.978-.386-9.878-.582-14.561-.582-24.586 0-48.322 5.04-70.548 14.98-21.396 9.569-40.36 23.188-56.366 40.479-16.007 17.291-28.124 37.249-36.017 59.319-8.198 22.925-11.395 46.979-9.5 71.492l3.416 44.207c.06.771-.125 1.527-.534 2.186l-9.101 14.642c-13.163 21.176-20.121 45.55-20.121 70.485 0 7.526 6.124 13.65 13.65 13.65h21.653l11.62 67.539c2.79 16.216 16.757 28.032 33.211 28.096l74.58.292c7.719.03 14 6.335 14 14.054v62.342c0 4.142 3.358 7.5 7.5 7.5s7.5-3.358 7.5-7.5v-62.343c-.001-15.957-12.984-28.991-28.942-29.054z"/><path d="m441.224 30.559h-218.278c-25.695 0-46.599 20.904-46.599 46.599v27.412c0 4.142 3.358 7.5 7.5 7.5s7.5-3.358 7.5-7.5v-27.412c0-17.424 14.175-31.599 31.599-31.599h218.278c17.424 0 31.6 14.175 31.6 31.599v182.017c0 17.424-14.176 31.599-31.6 31.599h-159.641c-2.638 0-5.081 1.385-6.436 3.648l-16.981 28.372c-.262.438-.652.659-1.162.659s-.9-.222-1.162-.659l-16.981-28.373c-1.354-2.263-3.798-3.648-6.436-3.648h-9.479c-17.424 0-31.599-14.175-31.599-31.599v-122.642c0-4.142-3.358-7.5-7.5-7.5s-7.5 3.358-7.5 7.5v122.643c0 25.695 20.904 46.599 46.599 46.599h5.227l14.798 24.724c2.981 4.981 8.227 7.955 14.032 7.956h.001c5.805 0 11.052-2.974 14.033-7.956l14.798-24.724h155.389c25.695 0 46.6-20.904 46.6-46.599v-182.017c-.001-25.695-20.905-46.599-46.6-46.599z"/><path d="m401.788 103.821v-17.938c0-3.581-.69-7.076-2.052-10.392-3.719-9.04-12.437-14.881-22.245-14.881-7.574 0-14.387 4.502-17.356 11.47l-5.955 13.97-23.538 13.705-3.845 1.634c-7.576 3.219-13.693 9.087-17.227 16.524l-3.585 7.547h-66.593c-4.142 0-7.5 3.358-7.5 7.5s3.358 7.5 7.5 7.5h71.333c2.896 0 5.532-1.667 6.774-4.282l5.619-11.829c1.957-4.12 5.347-7.371 9.544-9.155l4.278-1.818c.289-.123.57-.264.841-.421l26.095-15.193c1.396-.813 2.492-2.055 3.126-3.541l6.931-16.259c.608-1.428 2.005-2.351 3.592-2.351 3.669 0 6.942 2.193 8.337 5.584.614 1.496.926 3.073.926 4.689v17.938c0 4.458-.938 8.774-2.791 12.829l-3.939 8.625c-1.523 3.336-1.25 7.17.733 10.256 1.982 3.086 5.356 4.928 9.024 4.928h33.196c4.74 0 8.597 3.856 8.597 8.597 0 3.277-1.825 6.226-4.764 7.694-2.352 1.175-3.916 3.496-4.123 6.117s.973 5.159 3.109 6.689c1.986 1.422 3.125 3.632 3.125 6.063 0 3.058-1.918 5.852-4.772 6.953-2.425.936-4.192 3.059-4.672 5.613-.479 2.554.396 5.174 2.316 6.925 1.347 1.229 2.089 2.908 2.089 4.729 0 2.981-2.107 5.607-5.019 6.247-3.838.847-6.623 4.318-6.623 8.28 0 3.084 1.686 5.927 4.392 7.416 2.006 1.105 3.276 3.207 3.316 5.485.029 1.661-.616 3.249-1.818 4.473-1.275 1.298-3.053 2.043-4.876 2.043h-25.243c-4.143 0-7.5 3.358-7.5 7.5s3.357 7.5 7.5 7.5h25.243c5.821 0 11.499-2.38 15.576-6.531 4.045-4.118 6.218-9.534 6.116-15.25-.071-3.999-1.27-7.833-3.358-11.109 4.498-3.975 7.294-9.781 7.294-16.054 0-2.859-.577-5.663-1.661-8.254 4.184-4.15 6.7-9.885 6.7-15.966 0-3.979-1.066-7.837-3.007-11.205 3.601-4.191 5.659-9.588 5.659-15.358 0-13.012-10.585-23.597-23.597-23.597h-26.548l1.178-2.578c2.753-6.024 4.148-12.437 4.148-19.061z"/><path d="m239.392 240.733h69.285l6.829 4.031c4.457 2.63 9.549 4.021 14.724 4.021h25.854c4.143 0 7.5-3.358 7.5-7.5s-3.357-7.5-7.5-7.5h-25.854c-2.495 0-4.95-.67-7.1-1.938l-8.592-5.072c-1.155-.682-2.472-1.042-3.813-1.042h-71.333c-4.142 0-7.5 3.358-7.5 7.5s3.358 7.5 7.5 7.5z"/></g></svg>