<svg height="512" viewBox="0 0 64 64" width="512" xmlns="http://www.w3.org/2000/svg"><g id="flat"><path d="m26 53h12v4h-12z" fill="#5a6470"/><path d="m30 46h4v7h-4z" fill="#7d8d9c"/><path d="m34 40v2h-4v-2h-4v4l4 2h4l4-2v-4z" fill="#5a6470"/><path d="m3 57h58v4h-58z" fill="#ad6327"/><path d="m31 32-2 2a2.828 2.828 0 0 1 -4 0 2.828 2.828 0 0 1 0-4l6-6z" fill="#f9bb4b"/><path d="m31 24v11a3 3 0 0 0 6 0v-7l6-6a3.209 3.209 0 0 0 0-4l-5-8v-3h-15l-2 4 1 4z" fill="#ffd782"/><path d="m31 24-2 2a2.12 2.12 0 0 1 -3 0 2.12 2.12 0 0 1 0-3l3-3 2 2z" fill="#eaa83d"/><path d="m23 23a2.12 2.12 0 0 1 0-3l4-4 2 2v2l-3 3a2.12 2.12 0 0 1 -3 0z" fill="#f9bb4b"/><path d="m21 19a2.12 2.12 0 0 1 0-3l3-3 3 3-3 3a2.12 2.12 0 0 1 -3 0z" fill="#eaa83d"/><path d="m34 39a4 4 0 0 1 -4-4v-12.586l-1.707-1.707a1 1 0 0 1 -.293-.707v-6h2v5.586l1.707 1.707a1 1 0 0 1 .293.707v13a2 2 0 0 0 4 0v-15a1 1 0 0 1 .293-.707l2-2 1.414 1.414-1.707 1.707v14.586a4 4 0 0 1 -4 4z" fill="#f7c589"/><path d="m21 3h18v4h-18z" fill="#dd3e46" transform="matrix(-1 0 0 -1 60 10)"/><path d="m12 53h10v4h-10z" fill="#5a6470"/><path d="m22 41-3 2h-4l-3-2v-2h10z" fill="#5a6470"/><path d="m19 43h-4c0 3-2 5-2 7a4.38 4.38 0 0 0 1 3h6a4.38 4.38 0 0 0 1-3c0-2-2-4-2-7z" fill="#7d8d9c"/><path d="m17 35a3 3 0 0 0 -3 3 2.962 2.962 0 0 0 .184 1h5.632a2.962 2.962 0 0 0 .184-1 3 3 0 0 0 -3-3z" fill="#394d5c"/><path d="m42 53h10v4h-10z" fill="#5a6470"/><path d="m52 41-3 2h-4l-3-2v-2h10z" fill="#5a6470"/><path d="m49 43h-4c0 3-2 5-2 7a4.38 4.38 0 0 0 1 3h6a4.38 4.38 0 0 0 1-3c0-2-2-4-2-7z" fill="#7d8d9c"/><path d="m47 35a3 3 0 0 0 -3 3 2.962 2.962 0 0 0 .184 1h5.632a2.962 2.962 0 0 0 .184-1 3 3 0 0 0 -3-3z" fill="#394d5c"/></g></svg>